<?xml version="1.0" encoding="utf-8"?>
<?xml-stylesheet type="text/xsl" href="rss1.xsl"?>
<rss version="2.0" xmlns:atom="http://www.w3.org/2005/Atom" xmlns:content="http://purl.org/rss/1.0/modules/content/" xmlns:dc="http://purl.org/dc/elements/1.1/" xmlns:media="http://search.yahoo.com/mrss/">
<channel>
 <title>Getty</title>
 <link>http://www.gettyimg.com/</link>
 <atom:link href="http://www.gettyimg.com/" rel="self" type="application/rss+xml" />

 
                <item>
                <title><![CDATA[【Requests】[REQ AUD] - Selena - dreaming of you album iTunes + radio edit mp3]]></title>
                <link><![CDATA[https://sharemania.us/threads/selena-dreaming-of-you-album-itunes-radio-edit-mp3.240675/]]></link>
                <description><![CDATA[<article>
<blockquote class="messageText SelectQuoteContainer ugc baseHtml">
thank you
<div class="messageTextEndMarker">&nbsp;</div>
</blockquote>
</article>]]></description>
                <author><![CDATA[babywaffles]]></author>
                </item>

                
                <item>
                <title><![CDATA[【HD Live Performances】WEB-DL - Hungria - Lollapalooza Brazil 2024 - WEB-DL 2160P DDP5.1 HEVC-chmt]]></title>
                <link><![CDATA[https://sharemania.us/threads/hungria-lollapalooza-brazil-2024-web-dl-2160p-ddp5-1-hevc-chmt.240673/]]></link>
                <description><![CDATA[<article>
<blockquote class="messageText SelectQuoteContainer ugc baseHtml">
<img src="https://i.imgur.com/henY2n7.jpeg" class="bbCodeImage LbImage" alt="[​IMG]" data-url="https://i.imgur.com/henY2n7.jpeg" style=""> <br>
<br>
<div class="ToggleTriggerAnchor bbCodeSpoilerContainer">
<button type="button" class="button bbCodeSpoilerButton ToggleTrigger Tooltip JsOnly" data-target="> .SpoilerTarget"><span>Spoiler: <span class="SpoilerTitle">MediaInfo</span></span></button>
<div class="SpoilerTarget bbCodeSpoilerText">General<br>
Unique ID : 328093401201936568735862965821464395292 (0xF6D47D9781D8284616BC7B6244CC3E1C)<br>
Complete name : C:\Lollapalooza.Brazil.2024.Hungria.GLBO.WEB-DL.2160P.DDP5.1.HEVC-chmt.mkv<br>
Format : Matroska<br>
Format version : Version 4 / Version 2<br>
File size : 7.93 GiB<br>
Duration : 1 h 1 min<br>
Overall bit rate : 18.6 Mb/s<br>
Encoded date : UTC 2024-03-24 18:31:34<br>
Writing application : mkvmerge v83.0 ('Circle Of Friends') 64-bit<br>
Writing library : libebml v1.4.5 + libmatroska v1.7.1<br>
<br>
Video<br>
ID : 1<br>
Format : HEVC<br>
Format/Info : High Efficiency Video Coding<br>
Format profile : Main 10@L5.1@High<br>
Codec ID : V_MPEGH/ISO/HEVC<br>
Duration : 1 h 1 min<br>
Bit rate : 18.0 Mb/s<br>
Width : 3 840 pixels<br>
Height : 2 160 pixels<br>
Display aspect ratio : 16:9<br>
Frame rate mode : Constant<br>
Frame rate : 30.000 FPS<br>
Standard : NTSC<br>
Color space : YUV<br>
Chroma subsampling : 4:2:0<br>
Bit depth : 10 bits<br>
Bits/(Pixel*Frame) : 0.072<br>
Stream size : 7.68 GiB (97%)<br>
Default : Yes<br>
Forced : No<br>
Color range : Limited<br>
Color primaries : BT.709<br>
Transfer characteristics : BT.709<br>
Matrix coefficients : BT.709<br>
<br>
Audio #1<br>
ID : 2<br>
Format : E-AC-3<br>
Format/Info : Enhanced Audio Coding 3<br>
Format profile : E-AC-3+Atmos / E-AC-3<br>
Format settings, Endianness : Big<br>
Codec ID : A_EAC3<br>
Duration : 1 h 1 min<br>
Bit rate mode : Constant<br>
Bit rate : 448 kb/s<br>
Channel(s) : 11 objects / 6 channels<br>
Channel positions : 11 objects / Front: L C R, Side: L R, LFE<br>
Sampling rate : 48.0 kHz<br>
Frame rate : 187.500 FPS (256 SPF)<br>
Compression mode : Lossy<br>
Stream size : 196 MiB (2%)<br>
Language : English<br>
Service kind : Complete Main<br>
Default : Yes<br>
Forced : No<br>
<br>
Audio #2<br>
ID : 3<br>
Format : AAC<br>
Format/Info : Advanced Audio Codec<br>
Format profile : LC<br>
Codec ID : A_AAC<br>
Duration : 1 h 1 min<br>
Bit rate : 125 kb/s<br>
Channel(s) : 2 channels<br>
Channel positions : Front: L R<br>
Sampling rate : 48.0 kHz<br>
Frame rate : 46.875 FPS (1024 SPF)<br>
Compression mode : Lossy<br>
Stream size : 54.9 MiB (1%)<br>
Language : English<br>
Default : No<br>
Forced : No</div>
</div><br>
<div class="bbCodeBlock bbCodeVfcHH HiddenContent">
<div class="attribution type">Hidden Content:</div>
<blockquote>You must either reply or click 'Like' to see the hidden information contained here.</blockquote>
</div>
<div class="messageTextEndMarker">&nbsp;</div>
</blockquote>
</article>]]></description>
                <author><![CDATA[chmt]]></author>
                </item>

                
                <item>
                <title><![CDATA[【Interviews / TV shows / Others】HDTV - Kesha: My Crazy Beautiful Life (Complete Seasons)]]></title>
                <link><![CDATA[https://sharemania.us/threads/kesha-my-crazy-beautiful-life-complete-seasons.240669/]]></link>
                <description><![CDATA[<article>
<blockquote class="messageText SelectQuoteContainer ugc baseHtml">
<div style="text-align: center"><img src="https://i.ibb.co/QYt3c8J/677080b0972762ab5c8e6f84c638e8f4.jpg" class="bbCodeImage LbImage" alt="[​IMG]" data-url="https://i.ibb.co/QYt3c8J/677080b0972762ab5c8e6f84c638e8f4.jpg" style=""> <br>
<br>
<b>MTV Kesha: My Crazy Beautiful Life</b><br>
Episodes: 14, Seasons: 2 <br>
720p, 9,13GB<br>
<br>
<b>DOWNLOAD:</b><br>
<br>
<div class="bbCodeBlock bbCodeVfcHH HiddenContent">
<div class="attribution type">Hidden Content:</div>
<blockquote>You must reply before you can see the hidden data contained here.</blockquote>
</div></div>
<div class="messageTextEndMarker">&nbsp;</div>
</blockquote>
</article>]]></description>
                <author><![CDATA[markjunk]]></author>
                </item>

                
                <item>
                <title><![CDATA[【HD Live Performances】HDTV - Garbage - One Mile High (2012)]]></title>
                <link><![CDATA[https://sharemania.us/threads/garbage-one-mile-high-2012.240674/]]></link>
                <description><![CDATA[<article>
<blockquote class="messageText SelectQuoteContainer ugc baseHtml">
<div style="text-align: center"><img src="https://i.ibb.co/nBZ33hF/608c8db115bca80b927cd474.png" class="bbCodeImage LbImage" alt="[​IMG]" data-url="https://i.ibb.co/nBZ33hF/608c8db115bca80b927cd474.png" style=""> <br>
<br>
<b>Garbage - One Mile High Live 2012</b><br>
Size: 3,28GB, mkv 720p<br>
<br>
<b>DOWNLOAD:</b><br>
<div class="bbCodeBlock bbCodeVfcHH HiddenContent">
<div class="attribution type">Hidden Content:</div>
<blockquote>You must reply before you can see the hidden data contained here.</blockquote>
</div></div>
<div class="messageTextEndMarker">&nbsp;</div>
</blockquote>
</article>]]></description>
                <author><![CDATA[markjunk]]></author>
                </item>

                </channel></rss>